<svg xmlns="http://www.w3.org/2000/svg" width="41" height="35" viewBox="0 0 41 35" fill="none">
  <path d="M1.51672 28.8389L8.21667 26.9889V24.9889L1.51672 26.8389C0.983388 26.9722 0.583314 27.2722 0.316648 27.7389H0.266721C5.42402e-05 28.2056 -0.0666857 28.6889 0.0666477 29.1889C0.099981 29.3889 0.183314 29.5556 0.316648 29.6889C0.583314 29.2556 0.983388 28.9722 1.51672 28.8389ZM40.6667 21.4389L40.7167 21.2889C40.8833 20.9222 40.9501 20.5389 40.9167 20.1389C40.8501 19.8722 40.7667 19.6556 40.6667 19.4889C40.5667 19.3556 40.4667 19.2222 40.3667 19.0889C40.0667 18.7889 39.7166 18.6056 39.3166 18.5389L31.9667 17.0889L30.2167 1.78889C30.15 1.35556 29.9833 0.988885 29.7167 0.688885C29.45 0.388885 29.1167 0.188894 28.7167 0.088894C28.3167 -0.0444394 27.9333 -0.0277849 27.5666 0.138882C27.1666 0.272215 26.85 0.505561 26.6167 0.838894L17.8166 13.1389L5.41675 8.78889C4.88341 8.58889 4.38341 8.60556 3.91675 8.83889C3.48341 9.00556 3.16667 9.27221 2.96667 9.63888C2.93334 9.70555 2.90003 9.77223 2.8667 9.83889C2.6667 10.3389 2.6667 10.8389 2.8667 11.3389L2.96667 11.6389C3.16667 11.2389 3.48341 10.9556 3.91675 10.7889C4.38341 10.5556 4.88341 10.5389 5.41675 10.7389L17.8166 15.0889L26.6167 2.83889C26.85 2.50556 27.1666 2.27222 27.5666 2.13888C27.9333 1.97222 28.3167 1.95556 28.7167 2.08889C29.1167 2.18889 29.45 2.38888 29.7167 2.68888C29.9833 2.98888 30.15 3.35556 30.2167 3.78889L31.9667 19.0889L39.3166 20.4889C39.7166 20.5556 40.0667 20.7389 40.3667 21.0389C40.4667 21.1722 40.5667 21.3056 40.6667 21.4389Z" fill="#2BC26A"/>
  <path d="M40.3665 21.0389C40.0665 20.7389 39.7164 20.5556 39.3164 20.4889L31.9664 19.0889L30.2164 3.78889C30.1498 3.35556 29.9831 2.98888 29.7164 2.68888C29.4498 2.38888 29.1164 2.18889 28.7164 2.08889C28.3164 1.95556 27.9331 1.97222 27.5664 2.13888C27.1664 2.27222 26.8498 2.50556 26.6165 2.83889L17.8164 15.0889L5.4165 10.7389C4.88317 10.5389 4.38317 10.5556 3.9165 10.7889C3.48317 10.9556 3.16643 11.2389 2.96643 11.6389L8.21643 24.9889V26.9889L1.51648 28.8389C0.983146 28.9722 0.583073 29.2556 0.316406 29.6889C0.44974 29.9556 0.649837 30.1889 0.916504 30.3889L8.01648 34.9889H34.1665L40.6665 21.4389C40.5665 21.3056 40.4665 21.1722 40.3665 21.0389Z" fill="#27AE60"/>
</svg>